# This file uses centimeters as units for non-parametric coordinates.

mtllib Ett.mtl
g default
v 0.000011 0.000000 5.000000
v 31.654909 0.000000 5.000000
v 0.000011 11.244888 5.000000
v 9.623676 11.244888 5.000000
v 20.786171 11.244888 5.000000
v 31.654909 11.244888 5.000000
v 9.623676 60.987053 5.000000
v 20.786171 74.947670 5.000000
v 0.640461 60.987053 5.000000
v 0.640461 66.002411 5.000000
v 9.623676 74.947670 5.000000
v 0.640461 66.002411 -5.000000
v 9.623676 74.947670 -5.000000
v 20.786171 74.947670 -5.000000
v 0.640461 60.987053 -5.000000
v 9.623676 60.987053 -5.000000
v 9.623676 11.244888 -5.000000
v 20.786171 11.244888 -5.000000
v 0.000011 11.244888 -5.000000
v 31.654909 11.244888 -5.000000
v 0.000011 0.000000 -5.000000
v 31.654909 0.000000 -5.000000
vt 0.367147 -0.023271
vt 0.624932 -0.003786
vt 0.375000 0.050000
vt 0.458802 0.070465
vt 0.541814 0.069651
vt 0.625000 0.050000
vt 0.452841 0.182154
vt 0.541704 0.221862
vt 0.375000 0.200000
vt 0.375000 0.250000
vt 0.458333 0.250000
vt 0.375000 0.500000
vt 0.458333 0.500000
vt 0.542211 0.522423
vt 0.250000 0.375000
vt 0.442683 0.546676
vt 0.449773 0.668012
vt 0.542561 0.685758
vt 0.250000 0.375000
vt 0.625000 0.700000
vt 0.360051 0.712634
vt 0.625231 0.752329
vt 0.375000 1.000000
vt 0.625000 1.000000
vt 0.874983 -0.000947
vt 0.875000 0.050000
vt 0.154287 0.075432
vt 0.125000 0.250000
vn 0.000000 0.000000 1.000000
vn -0.000000 0.000000 1.000000
vn 0.000000 0.000000 1.000000
vn 0.000000 0.000000 1.000000
vn -0.000000 0.000000 1.000000
vn 0.000000 0.000000 1.000000
vn -0.000000 0.000000 1.000000
vn -0.000000 0.000000 1.000000
vn 0.000000 0.000000 1.000000
vn 0.000000 0.000000 1.000000
vn 0.000000 0.000000 1.000000
vn -0.705608 0.708602 0.000000
vn -0.405821 0.913953 0.000000
vn -0.405821 0.913953 0.000000
vn -0.705608 0.708602 0.000000
vn 0.000000 1.000000 0.000000
vn 0.000000 1.000000 0.000000
vn 0.000000 0.000000 -1.000000
vn 0.000000 0.000000 -1.000000
vn -0.000000 0.000000 -1.000000
vn 0.000000 0.000000 -1.000000
vn -0.000000 0.000000 -1.000000
vn -0.000000 0.000000 -1.000000
vn -0.000000 0.000000 -1.000000
vn 0.000000 0.000000 -1.000000
vn 0.000000 0.000000 -1.000000
vn 0.000000 0.000000 -1.000000
vn 0.000000 0.000000 -1.000000
vn 0.000000 -1.000000 0.000000
vn 0.334740 -0.942310 0.000000
vn 0.334740 -0.942310 0.000000
vn 0.000000 -1.000000 0.000000
vn 1.000000 0.000000 0.000000
vn 1.000000 0.000000 0.000000
vn -1.000000 0.000000 0.000000
vn -1.000000 0.000000 0.000000
vn -1.000000 0.000000 0.000000
vn -1.000000 0.000000 0.000000
vn -1.000000 0.000000 0.000000
vn -1.000000 0.000000 0.000000
vn -1.000000 0.000000 0.000000
vn -1.000000 0.000000 0.000000
vn 0.000000 -1.000000 0.000000
vn 0.000000 -1.000000 0.000000
vn 0.000000 -1.000000 0.000000
vn 0.000000 -1.000000 0.000000
vn 0.000000 1.000000 0.000000
vn 0.000000 1.000000 0.000000
vn 0.000000 1.000000 0.000000
vn 0.000000 1.000000 0.000000
vn -1.000000 0.000000 0.000000
vn -1.000000 0.000000 0.000000
vn -1.000000 0.000000 0.000000
vn -1.000000 0.000000 0.000000
vn 1.000000 0.000000 0.000000
vn 1.000000 0.000000 0.000000
vn 1.000000 0.000000 0.000000
vn 1.000000 0.000000 0.000000
vn 0.000000 1.000000 0.000000
vn 0.000000 1.000000 0.000000
vn 0.000000 1.000000 0.000000
vn 0.000000 1.000000 0.000000
s 1
g Charr1
usemtl initialShadingGroup
f 1/1/1 4/4/2 3/3/3
f 1/1/1 2/2/4 5/5/5 4/4/2
f 2/2/4 6/6/6 5/5/5
f 4/4/2 5/5/5 8/8/7 7/7/8
f 9/9/9 7/7/8 11/11/10 10/10/11
f 7/7/8 8/8/7 11/11/10
s 2
f 10/10/12 11/11/13 13/13/14 12/12/15
f 11/11/13 8/8/16 14/14/17 13/13/14
s 3
f 12/12/18 13/13/19 16/16/20 15/15/21
f 13/13/19 14/14/22 16/16/20
f 16/16/20 14/14/22 18/18/23 17/17/24
f 19/19/25 17/17/24 21/21/26
f 17/17/24 18/18/23 22/22/27 21/21/26
f 18/18/23 20/20/28 22/22/27
s 4
f 21/21/29 22/22/30 2/24/31 1/23/32
f 2/2/31 22/25/30 20/26/33 6/6/34
s off
f 21/27/35 1/1/36 3/3/37 19/19/38
f 15/15/39 9/9/40 10/10/41 12/28/42
f 7/7/43 9/9/44 15/15/45 16/16/46
f 3/3/47 4/4/48 17/17/49 19/19/50
f 4/4/51 7/7/52 16/16/53 17/17/54
f 8/8/55 5/5/56 18/18/57 14/14/58
f 6/6/59 20/20/60 18/18/61 5/5/62
