# This file uses centimeters as units for non-parametric coordinates.

mtllib FrictionBotTire.mtl
g default
v -0.000001 7.261349 -17.252697
v -0.000001 14.417057 -18.729067
v -0.000001 24.939896 -17.235006
v -0.000001 29.347813 -13.341216
v -0.000001 29.333279 15.477654
v -0.000001 24.901787 19.360497
v -0.000001 14.369980 20.836838
v -0.000001 7.223251 19.342793
v -0.000001 0.000000 15.449009
v -0.000001 0.014557 -13.369852
v 28.902649 7.261349 -17.252697
v 28.902649 14.417057 -18.729067
v 28.902649 24.939896 -17.235006
v 28.902649 29.347813 -13.341216
v 28.902649 29.333279 15.477654
v 28.902649 24.901787 19.360497
v 28.902649 14.369980 20.836838
v 28.902649 7.223251 19.342793
v 28.902649 0.000000 15.449009
v 28.902649 0.014557 -13.369852
v -0.000001 8.761185 -15.927807
v -0.000001 14.412113 -17.093691
v -0.000001 23.432041 -15.913830
v -0.000001 26.914440 -12.837636
v -0.000001 26.900093 14.970543
v -0.000001 23.401939 18.035591
v -0.000001 14.374931 19.201477
v -0.000001 8.731106 18.021614
v -0.000001 2.433395 14.945408
v -0.000001 2.447739 -12.862741
v 28.925293 5.945808 -15.927856
v 28.921051 14.412121 -17.093750
v 28.925110 23.432106 -15.913870
v 28.963013 26.915047 -12.837587
v 28.962921 26.900703 14.970505
v 28.924866 23.402016 18.035645
v 28.920929 14.374931 19.201523
v 28.925171 5.915707 18.021656
v 28.966339 2.432716 14.945366
v 28.966461 2.447052 -12.862702
v 6.083220 8.761185 -15.927807
v 6.083220 14.412113 -17.093691
v 6.083220 14.393486 0.000000
v 6.083220 23.432041 -15.913830
v 6.083220 26.914440 -12.837636
v 6.083220 26.900093 14.970543
v 6.083220 23.401939 18.035591
v 6.083220 14.374931 19.201477
v 6.083220 8.731106 18.021614
v 6.083220 2.433395 14.945408
v 6.083220 2.447739 -12.862741
v 22.842224 5.942513 -15.902000
v 22.837982 14.411961 -17.068556
v 23.238556 14.017262 5.837799
v 22.842041 23.432514 -15.888140
v 22.882050 26.805202 -12.824440
v 22.881958 26.791267 14.957436
v 22.841797 23.402912 18.010101
v 22.837830 14.374863 19.176537
v 22.842102 5.912292 17.995995
v 22.885742 2.548569 14.932217
v 22.885834 2.563042 -12.849447
vt 0.375000 0.312500
vt 0.400000 0.312500
vt 0.400000 0.688440
vt 0.375000 0.688440
vt 0.425000 0.312500
vt 0.425000 0.688440
vt 0.450000 0.312500
vt 0.450000 0.688440
vt 0.475000 0.312500
vt 0.475000 0.688440
vt 0.500000 0.312500
vt 0.500000 0.688440
vt 0.525000 0.312500
vt 0.525000 0.688440
vt 0.550000 0.312500
vt 0.550000 0.688440
vt 0.575000 0.312500
vt 0.575000 0.688440
vt 0.600000 0.312500
vt 0.600000 0.688440
vt 0.625000 0.312500
vt 0.625000 0.688440
vt 0.548284 0.007647
vt 0.626409 0.064409
vt 0.500000 0.150000
vt 0.451716 0.007647
vt 0.373591 0.064409
vt 0.343750 0.156250
vt 0.373591 0.248091
vt 0.451716 0.304853
vt 0.548284 0.304853
vt 0.626409 0.248091
vt 0.656250 0.156250
vt 0.626409 0.935591
vt 0.548284 0.992353
vt 0.500000 0.837500
vt 0.451716 0.992353
vt 0.373591 0.935591
vt 0.343750 0.843750
vt 0.373591 0.751909
vt 0.451716 0.695147
vt 0.548284 0.695147
vt 0.626409 0.751909
vt 0.656250 0.843750
vt 0.548284 0.007647
vt 0.626409 0.064409
vt 0.626409 0.064409
vt 0.548284 0.007647
vt 0.451716 0.007647
vt 0.451716 0.007647
vt 0.373591 0.064409
vt 0.373591 0.064409
vt 0.343750 0.156250
vt 0.343750 0.156250
vt 0.373591 0.248091
vt 0.373591 0.248091
vt 0.451716 0.304853
vt 0.451716 0.304853
vt 0.548284 0.304853
vt 0.548284 0.304853
vt 0.626409 0.248091
vt 0.626409 0.248091
vt 0.656250 0.156250
vt 0.656250 0.156250
vt 0.626409 0.935591
vt 0.548284 0.992353
vt 0.548284 0.992353
vt 0.626409 0.935591
vt 0.451716 0.992353
vt 0.451716 0.992353
vt 0.373591 0.935591
vt 0.373591 0.935591
vt 0.343750 0.843750
vt 0.343750 0.843750
vt 0.373591 0.751909
vt 0.373591 0.751909
vt 0.451716 0.695147
vt 0.451716 0.695147
vt 0.548284 0.695147
vt 0.548284 0.695147
vt 0.626409 0.751909
vt 0.626409 0.751909
vt 0.656250 0.843750
vt 0.656250 0.843750
vn 0.000000 -0.202065 -0.979372
vn 0.000000 -0.202065 -0.979372
vn 0.000000 -0.202065 -0.979372
vn 0.000000 -0.202065 -0.979372
vn 0.000000 0.140573 -0.990070
vn 0.000000 0.140573 -0.990070
vn 0.000000 0.140573 -0.990070
vn 0.000000 0.140573 -0.990070
vn 0.000000 0.662047 -0.749462
vn 0.000000 0.662047 -0.749462
vn 0.000000 0.662047 -0.749462
vn 0.000000 0.662047 -0.749462
vn 0.000000 1.000000 0.000504
vn 0.000000 1.000000 0.000504
vn 0.000000 1.000000 0.000504
vn 0.000000 1.000000 0.000504
vn 0.000000 0.659013 0.752132
vn 0.000000 0.659013 0.752132
vn 0.000000 0.659013 0.752132
vn 0.000000 0.659013 0.752132
vn 0.000000 0.138822 0.990317
vn 0.000000 0.138822 0.990317
vn 0.000000 0.138822 0.990317
vn 0.000000 0.138822 0.990317
vn 0.000000 -0.204629 0.978840
vn 0.000000 -0.204629 0.978840
vn 0.000000 -0.204629 0.978840
vn 0.000000 -0.204629 0.978840
vn 0.000000 -0.474510 0.880250
vn 0.000000 -0.474510 0.880250
vn 0.000000 -0.474510 0.880250
vn 0.000000 -0.474510 0.880250
vn 0.000000 -1.000000 -0.000505
vn 0.000000 -1.000000 -0.000505
vn 0.000000 -1.000000 -0.000505
vn 0.000000 -1.000000 -0.000505
vn 0.000000 -0.472281 -0.881448
vn 0.000000 -0.472281 -0.881448
vn 0.000000 -0.472281 -0.881448
vn 0.000000 -0.472281 -0.881448
vn -1.000000 -0.000000 0.000000
vn -1.000000 -0.000000 0.000000
vn -1.000000 0.000000 0.000000
vn -1.000000 0.000000 0.000000
vn -1.000000 0.000000 0.000000
vn -1.000000 0.000000 0.000000
vn -1.000000 0.000000 0.000000
vn -1.000000 -0.000000 0.000000
vn -1.000000 -0.000000 0.000000
vn -1.000000 0.000000 0.000000
vn -1.000000 0.000000 0.000000
vn 0.999846 -0.002145 -0.017431
vn 0.999847 0.000051 -0.017484
vn 0.999999 -0.000536 0.001391
vn 0.999849 0.002332 -0.017237
vn 0.999829 0.016868 -0.007542
vn 0.999696 0.024052 0.005400
vn 0.999600 0.006557 0.027527
vn 0.999549 0.000072 0.030027
vn 0.999580 -0.006549 0.028228
vn 0.999648 -0.025790 0.006258
vn 0.999822 -0.016843 -0.008548
vn -1.000000 0.000000 0.000000
vn -1.000000 0.000000 0.000000
vn -1.000000 0.000000 0.000000
vn -1.000000 0.000000 0.000000
vn -1.000000 0.000000 0.000000
vn -1.000000 0.000000 0.000000
vn -1.000000 -0.000000 0.000000
vn -1.000000 -0.000000 0.000000
vn -1.000000 -0.000000 0.000000
vn -1.000000 -0.000000 0.000000
vn -1.000000 0.000000 0.000000
vn -1.000000 0.000000 0.000000
vn -1.000000 0.000000 0.000000
vn -1.000000 0.000000 0.000000
vn -1.000000 0.000000 0.000000
vn -1.000000 0.000000 0.000000
vn -1.000000 0.000000 0.000000
vn -1.000000 0.000000 0.000000
vn -1.000000 0.000000 0.000000
vn -1.000000 0.000000 0.000000
vn 0.999861 -0.003416 -0.016300
vn 0.999905 0.000058 -0.013750
vn 0.999905 0.000006 -0.013775
vn 0.999427 -0.014931 -0.030373
vn 0.999834 0.007615 -0.016539
vn 0.999878 0.004731 -0.014857
vn 0.999720 0.023603 -0.001781
vn 0.999736 0.022772 -0.003042
vn 0.999720 0.023597 0.001804
vn 0.999736 0.022754 0.003072
vn 0.999836 0.007531 0.016500
vn 0.999880 0.004677 0.014785
vn 0.999907 0.000028 0.013655
vn 0.999906 -0.000014 0.013676
vn 0.999862 -0.003436 0.016223
vn 0.999429 -0.014988 0.030269
vn 0.999664 -0.025859 0.001702
vn 0.999669 -0.025427 0.003892
vn 0.999664 -0.025856 -0.001731
vn 0.999669 -0.025417 -0.003937
vn 0.000000 0.202062 0.979373
vn 0.000000 0.202062 0.979373
vn 0.000000 0.202062 0.979373
vn 0.000000 0.202062 0.979373
vn 0.000000 -0.129701 0.991553
vn 0.000000 -0.129701 0.991553
vn 0.000000 -0.129701 0.991553
vn 0.000000 -0.129701 0.991553
vn 0.000000 -0.662044 0.749465
vn 0.000000 -0.662044 0.749465
vn 0.000000 -0.662044 0.749465
vn 0.000000 -0.662044 0.749465
vn 0.000000 -1.000000 -0.000516
vn 0.000000 -1.000000 -0.000516
vn 0.000000 -1.000000 -0.000516
vn 0.000000 -1.000000 -0.000516
vn 0.000000 -0.659011 -0.752133
vn 0.000000 -0.659011 -0.752133
vn 0.000000 -0.659011 -0.752133
vn 0.000000 -0.659011 -0.752133
vn 0.000000 -0.128091 -0.991762
vn 0.000000 -0.128091 -0.991762
vn 0.000000 -0.128091 -0.991762
vn 0.000000 -0.128091 -0.991762
vn 0.000000 0.204630 -0.978839
vn 0.000000 0.204630 -0.978839
vn 0.000000 0.204630 -0.978839
vn 0.000000 0.204630 -0.978839
vn 0.000000 0.438902 -0.898535
vn 0.000000 0.438902 -0.898535
vn 0.000000 0.438902 -0.898535
vn 0.000000 0.438902 -0.898535
vn 0.000000 1.000000 0.000516
vn 0.000000 1.000000 0.000516
vn 0.000000 1.000000 0.000516
vn 0.000000 1.000000 0.000516
vn 0.000000 0.436735 0.899590
vn 0.000000 0.436735 0.899590
vn 0.000000 0.436735 0.899590
vn 0.000000 0.436735 0.899590
vn 0.004118 0.136436 0.990640
vn 0.004118 0.136436 0.990640
vn 0.004118 0.136436 0.990640
vn 0.004118 0.136436 0.990640
vn 0.004148 -0.129728 0.991541
vn 0.004148 -0.129728 0.991541
vn 0.004148 -0.129728 0.991541
vn 0.004148 -0.129728 0.991541
vn 0.008383 -0.667186 0.744844
vn 0.008383 -0.667186 0.744844
vn 0.008383 -0.667186 0.744844
vn 0.008383 -0.667186 0.744844
vn 0.018027 -0.999837 -0.000509
vn 0.018027 -0.999837 -0.000509
vn 0.018027 -0.999837 -0.000509
vn 0.018027 -0.999837 -0.000509
vn 0.008299 -0.664150 -0.747553
vn 0.008299 -0.664150 -0.747553
vn 0.008299 -0.664150 -0.747553
vn 0.008299 -0.664150 -0.747553
vn 0.004110 -0.128113 -0.991751
vn 0.004110 -0.128113 -0.991751
vn 0.004110 -0.128113 -0.991751
vn 0.004110 -0.128113 -0.991751
vn 0.004083 0.138153 -0.990403
vn 0.004083 0.138153 -0.990403
vn 0.004083 0.138153 -0.990403
vn 0.004083 0.138153 -0.990403
vn 0.008547 0.667678 -0.744401
vn 0.008547 0.667678 -0.744401
vn 0.008547 0.667678 -0.744401
vn 0.008547 0.667678 -0.744401
vn 0.019061 0.999818 0.000518
vn 0.019061 0.999818 0.000518
vn 0.019061 0.999818 0.000518
vn 0.019061 0.999818 0.000518
vn 0.008560 0.664625 0.747128
vn 0.008560 0.664625 0.747128
vn 0.008560 0.664625 0.747128
vn 0.008560 0.664625 0.747128
s off
g polySurface10 polySurface7
usemtl lambert4SG
f 1/1/1 2/2/2 12/3/3 11/4/4
f 2/2/5 3/5/6 13/6/7 12/3/8
f 3/5/9 4/7/10 14/8/11 13/6/12
f 4/7/13 5/9/14 15/10/15 14/8/16
f 5/9/17 6/11/18 16/12/19 15/10/20
f 6/11/21 7/13/22 17/14/23 16/12/24
f 7/13/25 8/15/26 18/16/27 17/14/28
f 8/15/29 9/17/30 19/18/31 18/16/32
f 9/17/33 10/19/34 20/20/35 19/18/36
f 10/19/37 1/21/38 11/22/39 20/20/40
s 1
f 42/23/41 41/24/42 43/25/43
f 44/26/44 42/23/41 43/25/43
f 45/27/45 44/26/44 43/25/43
f 46/28/46 45/27/45 43/25/43
f 47/29/47 46/28/46 43/25/43
f 48/30/48 47/29/47 43/25/43
f 49/31/49 48/30/48 43/25/43
f 50/32/50 49/31/49 43/25/43
f 51/33/51 50/32/50 43/25/43
f 41/24/42 51/33/51 43/25/43
s 2
f 52/34/52 53/35/53 54/36/54
f 53/35/53 55/37/55 54/36/54
f 55/37/55 56/38/56 54/36/54
f 56/38/56 57/39/57 54/36/54
f 57/39/57 58/40/58 54/36/54
f 58/40/58 59/41/59 54/36/54
f 59/41/59 60/42/60 54/36/54
f 60/42/60 61/43/61 54/36/54
f 61/43/61 62/44/62 54/36/54
f 62/44/62 52/34/52 54/36/54
s 3
f 2/45/63 1/46/64 21/47/65 22/48/66
f 3/49/67 2/45/63 22/48/66 23/50/68
f 4/51/69 3/49/67 23/50/68 24/52/70
f 5/53/71 4/51/69 24/52/70 25/54/72
f 6/55/73 5/53/71 25/54/72 26/56/74
f 7/57/75 6/55/73 26/56/74 27/58/76
f 8/59/77 7/57/75 27/58/76 28/60/78
f 9/61/79 8/59/77 28/60/78 29/62/80
f 10/63/81 9/61/79 29/62/80 30/64/82
f 1/46/64 10/63/81 30/64/82 21/47/65
s 4
f 11/65/83 12/66/84 32/67/85 31/68/86
f 12/66/84 13/69/87 33/70/88 32/67/85
f 13/69/87 14/71/89 34/72/90 33/70/88
f 14/71/89 15/73/91 35/74/92 34/72/90
f 15/73/91 16/75/93 36/76/94 35/74/92
f 16/75/93 17/77/95 37/78/96 36/76/94
f 17/77/95 18/79/97 38/80/98 37/78/96
f 18/79/97 19/81/99 39/82/100 38/80/98
f 19/81/99 20/83/101 40/84/102 39/82/100
f 20/83/101 11/65/83 31/68/86 40/84/102
s off
f 22/48/103 21/47/104 41/24/105 42/23/106
f 23/50/107 22/48/108 42/23/109 44/26/110
f 24/52/111 23/50/112 44/26/113 45/27/114
f 25/54/115 24/52/116 45/27/117 46/28/118
f 26/56/119 25/54/120 46/28/121 47/29/122
f 27/58/123 26/56/124 47/29/125 48/30/126
f 28/60/127 27/58/128 48/30/129 49/31/130
f 29/62/131 28/60/132 49/31/133 50/32/134
f 30/64/135 29/62/136 50/32/137 51/33/138
f 21/47/139 30/64/140 51/33/141 41/24/142
f 31/68/143 32/67/144 53/35/145 52/34/146
f 32/67/147 33/70/148 55/37/149 53/35/150
f 33/70/151 34/72/152 56/38/153 55/37/154
f 34/72/155 35/74/156 57/39/157 56/38/158
f 35/74/159 36/76/160 58/40/161 57/39/162
f 36/76/163 37/78/164 59/41/165 58/40/166
f 37/78/167 38/80/168 60/42/169 59/41/170
f 38/80/171 39/82/172 61/43/173 60/42/174
f 39/82/175 40/84/176 62/44/177 61/43/178
f 40/84/179 31/68/180 52/34/181 62/44/182
