# This file uses centimeters as units for non-parametric coordinates.

mtllib Hashtag.mtl
g default
v -30.689747 14.059193 -0.366521
v -22.755114 10.383881 -0.366522
v -8.271992 3.675310 -0.366523
v -0.337366 -0.000004 -0.366519
v -35.427845 35.604939 -0.366521
v -23.309753 29.991840 -0.366520
v -15.375120 26.316540 -0.366518
v -0.892004 19.607964 -0.366517
v 7.042624 15.932644 -0.366520
v 19.002796 10.392700 -0.366518
v -30.794991 45.606789 -0.366518
v -18.676899 39.993702 -0.366518
v -10.742270 36.318390 -0.366516
v 3.740851 29.609818 -0.366520
v 11.675479 25.934498 -0.366515
v 23.635645 20.394552 -0.366522
v -23.555971 61.235088 -0.366516
v -11.437882 55.621998 -0.366519
v -3.503253 51.946686 -0.366518
v 10.979868 45.238117 -0.366518
v 18.914499 41.562798 -0.366519
v 30.874666 36.022854 -0.366517
v -18.923119 71.236946 -0.366519
v -6.805030 65.623856 -0.366518
v 1.129601 61.948540 -0.366521
v 15.612720 55.239967 -0.366516
v 23.547348 51.564648 -0.366523
v 35.507515 46.024708 -0.366513
v 0.355871 81.083511 -0.366515
v 8.290497 77.408188 -0.366519
v 22.773619 70.699615 -0.366516
v 30.708250 67.024300 -0.366514
v 0.355868 81.083504 -11.214271
v 8.290499 77.408195 -11.214270
v 22.773617 70.699615 -11.214271
v 30.708250 67.024300 -11.214270
v -18.923122 71.236938 -11.214269
v -6.805031 65.623856 -11.214271
v 1.129601 61.948540 -11.214272
v 15.612720 55.239967 -11.214272
v 23.547352 51.564655 -11.214271
v 35.507515 46.024708 -11.214268
v -23.555975 61.235088 -11.214271
v -11.437882 55.621998 -11.214271
v -3.503253 51.946686 -11.214271
v 10.979870 45.238117 -11.214271
v 18.914499 41.562798 -11.214270
v 30.874664 36.022858 -11.214271
v -30.794987 45.606789 -11.214269
v -18.676901 39.993702 -11.214270
v -10.742270 36.318386 -11.214270
v 3.740851 29.609814 -11.214271
v 11.675480 25.934498 -11.214271
v 23.635645 20.394554 -11.214272
v -35.427841 35.604935 -11.214270
v -23.309750 29.991848 -11.214272
v -15.375121 26.316540 -11.214271
v -0.892004 19.607960 -11.214271
v 7.042632 15.932648 -11.214269
v 19.002794 10.392694 -11.214272
v -30.689747 14.059193 -11.214270
v -22.755114 10.383888 -11.214270
v -8.271992 3.675314 -11.214270
v -0.337366 -0.000006 -11.214270
vt 0.425000 0.000000
vt 0.475000 0.500000
vt 0.525000 0.500000
vt 0.575000 0.000000
vt 0.375000 0.050000
vt 0.425000 0.050000
vt 0.475000 0.050000
vt 0.525000 0.050000
vt 0.575000 0.050000
vt 0.625000 0.050000
vt 0.375000 0.100000
vt 0.425000 0.100000
vt 0.475000 0.100000
vt 0.525000 0.100000
vt 0.575000 0.100000
vt 0.625000 0.100000
vt 0.375000 0.150000
vt 0.425000 0.150000
vt 0.475000 0.150000
vt 0.525000 0.150000
vt 0.575000 0.150000
vt 0.625000 0.150000
vt 0.375000 0.200000
vt 0.425000 0.200000
vt 0.475000 0.200000
vt 0.525000 0.200000
vt 0.575000 0.200000
vt 0.625000 0.200000
vt 0.425000 0.250000
vt 0.475000 0.250000
vt 0.525000 0.250000
vt 0.575000 0.250000
vt 0.425000 0.500000
vt 0.475000 0.500000
vt 0.525000 0.500000
vt 0.575000 0.500000
vt 0.375000 0.550000
vt 0.425000 0.550000
vt 0.475000 0.550000
vt 0.525000 0.550000
vt 0.575000 0.550000
vt 0.625000 0.550000
vt 0.375000 0.600000
vt 0.425000 0.600000
vt 0.475000 0.600000
vt 0.525000 0.600000
vt 0.575000 0.600000
vt 0.750000 0.375000
vt 0.375000 0.650000
vt 0.425000 0.650000
vt 0.475000 0.650000
vt 0.525000 0.650000
vt 0.575000 0.650000
vt 0.750000 0.375000
vt 0.375000 0.700000
vt 0.425000 0.700000
vt 0.475000 0.700000
vt 0.525000 0.700000
vt 0.575000 0.700000
vt 0.625000 0.700000
vt 0.425000 0.750000
vt 0.475000 0.750000
vt 0.525000 0.750000
vt 0.575000 0.750000
vt 0.425000 1.000000
vt 0.575000 1.000000
vt 0.875000 0.050000
vt 0.875000 0.200000
vt 0.125000 0.050000
vt 0.125000 0.100000
vt 0.125000 0.150000
vt 0.125000 0.200000
vn -0.000000 -0.000000 1.000000
vn -0.000000 -0.000000 1.000000
vn -0.000000 -0.000000 1.000000
vn -0.000000 -0.000000 1.000000
vn -0.000000 -0.000000 1.000000
vn -0.000000 -0.000000 1.000000
vn -0.000000 -0.000000 1.000000
vn -0.000000 -0.000000 1.000000
vn -0.000000 -0.000000 1.000000
vn -0.000000 -0.000000 1.000000
vn -0.000000 -0.000000 1.000000
vn -0.000000 0.000000 1.000000
vn -0.000000 0.000000 1.000000
vn -0.000000 0.000000 1.000000
vn 0.000000 -0.000000 1.000000
vn 0.000000 -0.000000 1.000000
vn -0.000000 0.000000 1.000000
vn 0.000000 0.000000 1.000000
vn -0.000000 0.000000 1.000000
vn -0.000000 0.000000 1.000000
vn 0.000000 0.000000 1.000000
vn 0.000000 -0.000000 1.000000
vn 0.000000 0.000000 1.000000
vn 0.000000 -0.000000 1.000000
vn 0.000000 -0.000000 1.000000
vn 0.000000 -0.000000 1.000000
vn -0.000000 0.000000 1.000000
vn -0.000000 0.000000 1.000000
vn 0.000000 -0.000000 1.000000
vn 0.000000 -0.000000 1.000000
vn 0.000000 -0.000000 1.000000
vn 0.000000 -0.000000 1.000000
vn 0.420300 0.907385 0.000000
vn 0.420300 0.907385 0.000000
vn 0.420300 0.907385 0.000000
vn 0.420300 0.907385 0.000000
vn 0.420300 0.907385 -0.000000
vn 0.420300 0.907385 -0.000000
vn 0.420300 0.907385 -0.000000
vn 0.420300 0.907385 -0.000000
vn 0.000000 0.000000 -1.000000
vn 0.000000 0.000000 -1.000000
vn 0.000000 -0.000000 -1.000000
vn 0.000000 0.000000 -1.000000
vn 0.000000 0.000000 -1.000000
vn 0.000000 0.000000 -1.000000
vn 0.000000 -0.000000 -1.000000
vn 0.000000 -0.000000 -1.000000
vn -0.000000 0.000000 -1.000000
vn -0.000000 0.000000 -1.000000
vn -0.000000 0.000000 -1.000000
vn -0.000000 -0.000000 -1.000000
vn 0.000000 -0.000000 -1.000000
vn 0.000000 -0.000000 -1.000000
vn -0.000000 0.000000 -1.000000
vn -0.000000 0.000000 -1.000000
vn 0.000000 0.000000 -1.000000
vn 0.000000 0.000000 -1.000000
vn 0.000000 -0.000000 -1.000000
vn 0.000000 -0.000000 -1.000000
vn -0.000000 0.000000 -1.000000
vn 0.000000 0.000000 -1.000000
vn -0.000000 0.000000 -1.000000
vn 0.000000 0.000000 -1.000000
vn 0.000000 -0.000000 -1.000000
vn -0.000000 -0.000000 -1.000000
vn -0.000000 -0.000000 -1.000000
vn -0.000000 -0.000000 -1.000000
vn 0.000000 -0.000000 -1.000000
vn 0.000000 -0.000000 -1.000000
vn 0.000000 -0.000000 -1.000000
vn 0.000000 -0.000000 -1.000000
vn -0.420299 -0.907385 -0.000000
vn -0.420299 -0.907386 -0.000000
vn -0.420299 -0.907386 -0.000000
vn -0.420299 -0.907385 -0.000000
vn -0.420301 -0.907385 -0.000000
vn -0.420301 -0.907385 -0.000000
vn -0.420301 -0.907385 -0.000000
vn -0.420300 -0.907385 -0.000000
vn 0.907385 -0.420300 0.000000
vn 0.907385 -0.420300 0.000000
vn 0.907385 -0.420300 0.000000
vn 0.907385 -0.420300 0.000000
vn 0.907385 -0.420300 0.000000
vn 0.907385 -0.420300 0.000000
vn 0.907385 -0.420300 0.000000
vn 0.907385 -0.420300 0.000000
vn -0.907385 0.420300 -0.000000
vn -0.907385 0.420300 -0.000000
vn -0.907385 0.420300 -0.000000
vn -0.907385 0.420300 -0.000000
vn -0.907385 0.420300 0.000000
vn -0.907385 0.420300 0.000000
vn -0.907385 0.420300 0.000000
vn -0.907385 0.420300 0.000000
vn 0.473350 -0.880875 0.000000
vn 0.473350 -0.880875 0.000000
vn 0.473350 -0.880874 0.000000
vn 0.473350 -0.880875 0.000000
vn 0.473350 -0.880875 0.000000
vn 0.473350 -0.880874 0.000000
vn 0.907385 -0.420300 0.000000
vn 0.907385 -0.420300 0.000000
vn 0.907385 -0.420300 0.000000
vn 0.907385 -0.420300 0.000000
vn -0.420300 -0.907385 -0.000000
vn -0.420300 -0.907385 -0.000000
vn -0.420300 -0.907385 -0.000000
vn -0.420300 -0.907385 -0.000000
vn 0.420300 0.907385 0.000000
vn 0.420301 0.907385 0.000000
vn 0.420301 0.907385 0.000000
vn 0.420300 0.907385 0.000000
vn 0.974865 0.222796 0.000000
vn 0.974865 0.222796 0.000000
vn 0.974865 0.222797 0.000000
vn 0.974865 0.222796 0.000000
vn 0.974865 0.222796 0.000000
vn 0.974865 0.222796 0.000000
vn 0.420300 0.907385 0.000000
vn 0.420300 0.907385 0.000000
vn 0.420300 0.907385 0.000000
vn 0.420300 0.907385 0.000000
vn 0.907385 -0.420300 -0.000000
vn 0.907385 -0.420300 -0.000000
vn 0.907385 -0.420300 -0.000000
vn 0.907385 -0.420300 -0.000000
vn -0.907385 0.420300 0.000000
vn -0.907385 0.420300 0.000000
vn -0.907385 0.420300 0.000000
vn -0.907385 0.420300 0.000000
vn -0.454850 0.890568 -0.000000
vn -0.454850 0.890568 -0.000000
vn -0.454850 0.890568 -0.000000
vn -0.454850 0.890568 -0.000000
vn -0.454850 0.890568 -0.000000
vn -0.454850 0.890568 -0.000000
vn 0.907385 -0.420300 -0.000000
vn 0.907385 -0.420300 -0.000000
vn 0.907385 -0.420300 -0.000000
vn 0.907385 -0.420300 -0.000000
vn -0.907385 0.420300 -0.000000
vn -0.907385 0.420300 -0.000000
vn -0.907385 0.420300 -0.000000
vn -0.907385 0.420300 -0.000000
vn 0.420300 0.907385 -0.000000
vn 0.420300 0.907385 -0.000000
vn 0.420300 0.907385 -0.000000
vn 0.420300 0.907385 -0.000000
vn -0.420300 -0.907385 -0.000000
vn -0.420300 -0.907385 -0.000000
vn -0.420300 -0.907385 -0.000000
vn -0.420300 -0.907385 -0.000000
vn -0.976663 -0.214777 -0.000000
vn -0.976663 -0.214777 -0.000000
vn -0.976663 -0.214777 -0.000000
vn -0.976663 -0.214777 -0.000000
vn -0.976663 -0.214777 -0.000000
vn -0.976663 -0.214777 -0.000000
vn -0.420301 -0.907385 0.000000
vn -0.420301 -0.907385 0.000000
vn -0.420301 -0.907385 0.000000
vn -0.420301 -0.907385 0.000000
vn -0.907385 0.420300 0.000000
vn -0.907385 0.420300 0.000000
vn -0.907385 0.420300 0.000000
vn -0.907385 0.420300 0.000000
vn 0.907385 -0.420300 -0.000000
vn 0.907385 -0.420300 -0.000000
vn 0.907385 -0.420300 -0.000000
vn 0.907385 -0.420300 -0.000000
vn -0.907385 0.420300 0.000000
vn -0.907385 0.420300 0.000000
vn -0.907385 0.420300 0.000000
vn -0.907385 0.420300 0.000000
vn 0.420300 0.907385 0.000000
vn 0.420300 0.907385 0.000000
vn 0.420300 0.907385 0.000000
vn 0.420300 0.907385 0.000000
vn -0.420300 -0.907385 0.000000
vn -0.420300 -0.907385 0.000000
vn -0.420300 -0.907385 0.000000
vn -0.420300 -0.907385 0.000000
s 1
g Charr9
usemtl initialShadingGroup
f 1/1/1 2/2/2 7/7/3 6/6/4
f 3/3/5 4/4/6 9/9/7 8/8/8
f 5/5/9 6/6/4 12/12/10 11/11/11
f 6/6/4 7/7/3 13/13/12 12/12/10
f 7/7/3 8/8/8 14/14/13 13/13/12
f 8/8/8 9/9/7 15/15/14 14/14/13
f 9/9/7 10/10/15 16/16/16 15/15/14
f 12/12/10 13/13/12 19/19/17 18/18/18
f 14/14/13 15/15/14 21/21/19 20/20/20
f 17/17/21 18/18/18 24/24/22 23/23/23
f 18/18/18 19/19/17 25/25/24 24/24/22
f 19/19/17 20/20/20 26/26/25 25/25/24
f 20/20/20 21/21/19 27/27/26 26/26/25
f 21/21/19 22/22/27 28/28/28 27/27/26
f 24/24/22 25/25/24 30/30/29 29/29/30
f 26/26/25 27/27/26 32/32/31 31/31/32
s off
f 29/29/33 30/30/34 34/34/35 33/33/36
f 31/31/37 32/32/38 36/36/39 35/35/40
s 3
f 33/33/41 34/34/42 39/39/43 38/38/44
f 35/35/45 36/36/46 41/41/47 40/40/48
f 37/37/49 38/38/44 44/44/50 43/43/51
f 38/38/44 39/39/43 45/45/52 44/44/50
f 39/39/43 40/40/48 46/46/53 45/45/52
f 40/40/48 41/41/47 47/47/54 46/46/53
f 41/41/47 42/42/55 48/48/56 47/47/54
f 44/44/50 45/45/52 51/51/57 50/50/58
f 46/46/53 47/47/54 53/53/59 52/52/60
f 49/49/61 50/50/58 56/56/62 55/55/63
f 50/50/58 51/51/57 57/57/64 56/56/62
f 51/51/57 52/52/60 58/58/65 57/57/64
f 52/52/60 53/53/59 59/59/66 58/58/65
f 53/53/59 54/54/67 60/60/68 59/59/66
f 56/56/62 57/57/64 62/62/69 61/61/70
f 58/58/65 59/59/66 64/64/71 63/63/72
s off
f 61/61/73 62/62/74 2/2/75 1/65/76
f 63/63/77 64/64/78 4/66/79 3/3/80
f 10/10/81 60/67/82 54/54/83 16/16/84
f 22/22/85 48/48/86 42/68/87 28/28/88
f 55/69/89 5/5/90 11/11/91 49/70/92
f 43/71/93 17/17/94 23/23/95 37/72/96
f 10/10/97 9/9/98 4/66/99 64/64/100 59/59/101 60/67/102
f 21/21/103 15/15/104 53/53/105 47/47/106
f 48/48/107 22/22/108 21/21/109 47/47/110
f 16/16/111 54/54/112 53/53/113 15/15/114
f 28/28/115 42/42/116 41/41/117 36/36/118 32/32/119 27/27/120
f 25/25/121 26/26/122 40/40/123 39/39/124
f 30/30/125 25/25/126 39/39/127 34/34/128
f 31/31/129 35/35/130 40/40/131 26/26/132
f 24/24/133 29/29/134 33/33/135 38/38/136 37/72/137 23/23/138
f 19/19/139 13/13/140 51/51/141 45/45/142
f 14/14/143 20/20/144 46/46/145 52/52/146
f 13/13/147 14/14/148 52/52/149 51/51/150
f 20/20/151 19/19/152 45/45/153 46/46/154
f 6/6/155 5/5/156 55/55/157 56/56/158 61/61/159 1/1/160
f 8/8/161 7/7/162 57/57/163 58/58/164
f 3/3/165 8/8/166 58/58/167 63/63/168
f 7/7/169 2/2/170 62/62/171 57/57/172
f 12/12/173 18/18/174 44/44/175 50/50/176
f 12/12/177 50/50/178 49/70/179 11/11/180
f 18/18/181 17/17/182 43/43/183 44/44/184
