# This file uses centimeters as units for non-parametric coordinates.

mtllib Sex.mtl
g default
v 48.776400 32.725433 -4.999997
v 45.225436 39.694644 -4.999997
v 39.694613 45.225441 -4.999997
v 32.725375 48.776430 -4.999997
v 24.999972 50.000015 -4.999997
v 1.223544 32.725430 -4.999997
v -0.000028 25.000004 -4.999997
v 1.223544 17.274578 -4.999997
v 4.774569 10.305370 -4.999997
v 10.305331 4.774574 -4.999997
v 17.274569 1.223587 -4.999997
v 24.999972 0.000000 -4.999997
v 32.725375 1.223587 -4.999997
v 39.694613 4.774578 -4.999997
v 45.225375 10.305370 -4.999997
v 48.776400 17.274578 -4.999997
v 49.999972 25.000004 -4.999997
v 48.776400 32.725433 5.000003
v 45.225436 39.694644 5.000003
v 39.694613 45.225441 5.000003
v 32.725375 48.776430 5.000003
v 24.999972 50.000015 5.000003
v 1.223544 32.725430 5.000003
v -0.000028 25.000004 5.000003
v 1.223544 17.274578 5.000003
v 4.774569 10.305370 5.000003
v 10.305331 4.774574 5.000003
v 17.274569 1.223587 5.000003
v 24.999972 0.000000 5.000003
v 32.725375 1.223587 5.000003
v 39.694613 4.774578 5.000003
v 45.225375 10.305370 5.000003
v 48.776400 17.274578 5.000003
v 49.999972 25.000004 5.000003
v 39.147250 29.596768 -4.999997
v 37.034396 33.743523 -4.999997
v 33.743502 37.034415 -4.999997
v 29.596713 39.147313 -4.999997
v 24.999972 39.875364 -4.999997
v 20.403231 39.147313 -4.999997
v 16.256442 37.034425 -4.999982
v 12.965548 33.743519 -4.999982
v 10.852633 29.596729 -4.999997
v 10.124606 25.000004 -4.999997
v 10.852633 20.403278 -4.999997
v 12.965548 16.256493 -4.999997
v 16.256442 12.965588 -4.999982
v 20.403231 10.852703 -4.999982
v 24.999972 10.124653 -4.999997
v 29.596713 10.852703 -4.999982
v 33.743502 12.965591 -4.999982
v 37.034396 16.256493 -4.999997
v 39.147311 20.403278 -4.999997
v 39.875338 25.000004 -4.999997
v 39.147250 29.596768 5.000003
v 37.034396 33.743523 5.000003
v 33.743502 37.034415 4.999988
v 29.596713 39.147313 4.999988
v 24.999972 39.875364 5.000003
v 20.403231 39.147313 5.000003
v 16.256442 37.034425 5.000003
v 12.965548 33.743519 5.000003
v 10.852633 29.596729 5.000003
v 10.124606 25.000004 5.000003
v 10.852633 20.403278 5.000003
v 12.965548 16.256493 5.000003
v 16.256442 12.965588 5.000003
v 20.403231 10.852703 5.000003
v 24.999972 10.124653 5.000003
v 29.596713 10.852703 5.000003
v 33.743502 12.965591 5.000003
v 37.034396 16.256493 5.000003
v 39.147311 20.403278 5.000003
v 39.875338 25.000004 5.000003
v 27.861850 76.163666 5.000003
v 36.348971 70.875128 5.000003
v 27.861850 76.163666 -4.999997
v 36.348971 70.875128 -4.999997
vt 0.648603 0.107966
vt 0.626409 0.064408
vt 0.591842 0.029841
vt 0.548284 0.007647
vt 0.502795 -0.013424
vt 0.354635 0.109018
vt 0.343750 0.156250
vt 0.351397 0.204534
vt 0.373591 0.248091
vt 0.408159 0.282659
vt 0.451716 0.304853
vt 0.500000 0.312500
vt 0.548284 0.304853
vt 0.591841 0.282659
vt 0.626409 0.248091
vt 0.648603 0.204534
vt 0.656250 0.156250
vt 0.375000 0.312500
vt 0.387500 0.312500
vt 0.400000 0.312500
vt 0.412500 0.312500
vt 0.425018 0.312500
vt 0.475250 0.312500
vt 0.487500 0.312500
vt 0.500000 0.312500
vt 0.512500 0.312500
vt 0.525000 0.312500
vt 0.537500 0.312500
vt 0.550000 0.312500
vt 0.562500 0.312500
vt 0.575000 0.312500
vt 0.587500 0.312500
vt 0.600000 0.312500
vt 0.612500 0.312500
vt 0.625000 0.312500
vt 0.375000 0.688440
vt 0.387500 0.688440
vt 0.400000 0.688440
vt 0.412500 0.688440
vt 0.424960 0.688440
vt 0.475064 0.688440
vt 0.487500 0.688440
vt 0.500000 0.688440
vt 0.512500 0.688440
vt 0.525000 0.688440
vt 0.537500 0.688440
vt 0.550000 0.688440
vt 0.562500 0.688440
vt 0.575000 0.688440
vt 0.587500 0.688440
vt 0.600000 0.688440
vt 0.612500 0.688440
vt 0.625000 0.688440
vt 0.648603 0.795466
vt 0.626409 0.751908
vt 0.591842 0.717341
vt 0.548284 0.695147
vt 0.500000 0.687500
vt 0.451716 0.695147
vt 0.408159 0.717341
vt 0.373591 0.751909
vt 0.351397 0.795466
vt 0.343750 0.843750
vt 0.359067 0.891456
vt 0.502819 1.013365
vt 0.548284 0.992353
vt 0.591841 0.970159
vt 0.626409 0.935591
vt 0.648603 0.892034
vt 0.656250 0.843750
vt 0.626409 0.064408
vt 0.648603 0.107966
vt 0.591842 0.029841
vt 0.548284 0.007647
vt 0.500000 -0.000000
vt 0.451716 0.007647
vt 0.408159 0.029841
vt 0.373591 0.064409
vt 0.351397 0.107966
vt 0.343750 0.156250
vt 0.351397 0.204534
vt 0.373591 0.248091
vt 0.408159 0.282659
vt 0.451716 0.304853
vt 0.500000 0.312500
vt 0.548284 0.304853
vt 0.591841 0.282659
vt 0.626409 0.248091
vt 0.648603 0.204534
vt 0.656250 0.156250
vt 0.648603 0.892034
vt 0.626409 0.935591
vt 0.591841 0.970159
vt 0.548284 0.992353
vt 0.500000 1.000000
vt 0.451716 0.992353
vt 0.408159 0.970159
vt 0.373591 0.935591
vt 0.351397 0.892034
vt 0.343750 0.843750
vt 0.351397 0.795466
vt 0.373591 0.751909
vt 0.408159 0.717341
vt 0.451716 0.695147
vt 0.500000 0.687500
vt 0.548284 0.695147
vt 0.591842 0.717341
vt 0.626409 0.751908
vt 0.648603 0.795466
vt 0.656250 0.843750
vt 0.384105 -0.004772
vt 0.660196 0.131405
vt 0.625000 0.250000
vt 0.375000 0.250000
vt 0.625000 0.500000
vt 0.375000 0.500000
vt 0.672018 0.643356
vt 0.384105 0.754220
vt 0.910191 0.131405
vt 0.875000 0.250000
vt 0.134085 -0.004772
vt 0.125000 0.250000
vn 0.951057 0.309016 0.000000
vn 0.809017 0.587785 0.000000
vn 0.809017 0.587785 0.000000
vn 0.951057 0.309016 0.000000
vn 0.587784 0.809018 0.000000
vn 0.587784 0.809018 0.000000
vn 0.309017 0.951057 0.000000
vn 0.309017 0.951057 0.000000
vn 0.986822 -0.161812 0.000000
vn 0.986822 -0.161812 0.000000
vn -0.987689 0.156428 0.000000
vn -1.000000 0.000000 0.000000
vn -1.000000 0.000000 0.000000
vn -0.987689 0.156428 0.000000
vn -0.951057 -0.309016 0.000000
vn -0.951057 -0.309016 0.000000
vn -0.809017 -0.587786 0.000000
vn -0.809017 -0.587786 0.000000
vn -0.587785 -0.809017 0.000000
vn -0.587785 -0.809017 0.000000
vn -0.309016 -0.951057 0.000000
vn -0.309016 -0.951057 0.000000
vn 0.000000 -1.000000 0.000000
vn 0.000000 -1.000000 0.000000
vn 0.309017 -0.951057 0.000000
vn 0.309017 -0.951057 0.000000
vn 0.587785 -0.809017 0.000000
vn 0.587785 -0.809017 0.000000
vn 0.809017 -0.587786 0.000000
vn 0.809017 -0.587786 0.000000
vn 0.951056 -0.309019 0.000000
vn 0.951056 -0.309019 0.000000
vn 1.000000 0.000000 0.000000
vn 1.000000 0.000000 0.000000
vn -0.000001 0.000000 -1.000000
vn -0.000000 0.000000 -1.000000
vn -0.000000 0.000000 -1.000000
vn -0.000001 0.000000 -1.000000
vn -0.000001 0.000000 -1.000000
vn -0.000001 0.000000 -1.000000
vn 0.000000 0.000000 -1.000000
vn 0.000000 0.000000 -1.000000
vn 0.000000 -0.000000 -1.000000
vn 0.000000 0.000000 -1.000000
vn 0.000000 0.000001 -1.000000
vn 0.000000 -0.000002 -1.000000
vn 0.000001 -0.000001 -1.000000
vn 0.000001 -0.000001 -1.000000
vn 0.000001 -0.000001 -1.000000
vn 0.000000 0.000000 -1.000000
vn 0.000000 0.000000 -1.000000
vn 0.000001 0.000000 -1.000000
vn 0.000001 0.000000 -1.000000
vn 0.000001 -0.000000 -1.000000
vn 0.000001 -0.000000 -1.000000
vn 0.000000 0.000001 -1.000000
vn 0.000000 0.000001 -1.000000
vn 0.000000 0.000001 -1.000000
vn 0.000000 0.000001 -1.000000
vn 0.000000 0.000001 -1.000000
vn 0.000000 0.000001 -1.000000
vn 0.000000 0.000001 -1.000000
vn 0.000000 0.000001 -1.000000
vn 0.000001 0.000001 -1.000000
vn 0.000001 0.000001 -1.000000
vn 0.000000 -0.000000 -1.000000
vn 0.000000 -0.000000 -1.000000
vn -0.000001 0.000000 -1.000000
vn -0.000001 0.000000 -1.000000
vn -0.000001 0.000000 -1.000000
vn -0.000001 0.000000 -1.000000
vn -0.000001 0.000000 1.000000
vn -0.000000 0.000000 1.000000
vn -0.000000 0.000000 1.000000
vn -0.000001 0.000000 1.000000
vn -0.000001 -0.000001 1.000000
vn -0.000001 -0.000001 1.000000
vn 0.000000 -0.000001 1.000000
vn -0.000000 -0.000001 1.000000
vn 0.000001 -0.000001 1.000000
vn 0.000001 -0.000001 1.000000
vn 0.000000 0.000000 1.000000
vn 0.000000 0.000000 1.000000
vn -0.000002 0.000000 1.000000
vn -0.000001 0.000000 1.000000
vn -0.000001 0.000000 1.000000
vn 0.000000 0.000000 1.000000
vn 0.000000 0.000000 1.000000
vn 0.000000 0.000000 1.000000
vn -0.000000 0.000000 1.000000
vn -0.000000 0.000000 1.000000
vn -0.000000 0.000000 1.000000
vn -0.000001 0.000000 1.000000
vn -0.000001 0.000000 1.000000
vn 0.000000 0.000000 1.000000
vn 0.000000 0.000000 1.000000
vn 0.000000 0.000000 1.000000
vn 0.000000 0.000000 1.000000
vn 0.000001 0.000000 1.000000
vn 0.000001 0.000000 1.000000
vn 0.000000 0.000000 1.000000
vn -0.000000 0.000000 1.000000
vn -0.000001 0.000000 1.000000
vn -0.000001 0.000000 1.000000
vn 0.000000 0.000000 1.000000
vn 0.000000 0.000000 1.000000
vn 0.000000 0.000000 1.000000
vn -0.000000 0.000000 1.000000
vn 0.000000 0.000000 1.000000
vn 0.000000 0.000000 1.000000
vn 0.000000 0.000000 1.000000
vn 0.000000 0.000000 1.000000
vn 0.528855 0.848712 0.000000
vn 0.528855 0.848712 0.000000
vn 0.528855 0.848712 0.000000
vn 0.528855 0.848712 0.000000
vn 0.000002 0.000000 -1.000000
vn 0.000002 0.000000 -1.000000
vn 0.000002 0.000000 -1.000000
vn 0.000002 0.000000 -1.000000
vn 0.878557 -0.477637 0.000000
vn 0.878557 -0.477637 0.000000
vn -0.852471 0.522774 0.000000
vn -0.852471 0.522774 0.000000
vn -0.852471 0.522774 0.000000
vn -0.852471 0.522774 0.000000
vn -0.891005 -0.453993 0.000000
vn -0.891005 -0.453993 0.000000
vn -0.891005 -0.453993 0.000000
vn -0.891005 -0.453993 0.000000
vn -0.987688 -0.156439 0.000000
vn -0.987688 -0.156439 0.000000
vn -0.987688 -0.156439 0.000000
vn -0.987688 -0.156439 0.000000
vn -0.987689 0.156430 0.000000
vn -0.987689 0.156430 0.000000
vn -0.987689 0.156430 0.000000
vn -0.987689 0.156430 0.000000
vn -0.891002 0.453999 0.000000
vn -0.891002 0.453999 0.000000
vn -0.891002 0.453999 0.000000
vn -0.891002 0.453999 0.000000
vn -0.707110 0.707104 0.000000
vn -0.707110 0.707104 0.000000
vn -0.707110 0.707104 0.000000
vn -0.707110 0.707104 0.000000
vn -0.453986 0.891009 0.000000
vn -0.453986 0.891009 0.000000
vn -0.453986 0.891009 0.000000
vn -0.453986 0.891009 0.000000
vn -0.156436 0.987688 0.000000
vn -0.156436 0.987688 0.000000
vn -0.156436 0.987688 0.000000
vn -0.156436 0.987688 0.000000
vn 0.156433 0.987689 0.000000
vn 0.156433 0.987689 0.000000
vn 0.156433 0.987689 0.000000
vn 0.156433 0.987689 0.000000
vn 0.453989 0.891007 0.000000
vn 0.453989 0.891007 0.000000
vn 0.453989 0.891007 0.000000
vn 0.453989 0.891007 0.000000
vn 0.707105 0.707108 0.000000
vn 0.707106 0.707108 0.000000
vn 0.707106 0.707108 0.000000
vn 0.707106 0.707108 0.000000
vn 0.891007 0.453990 0.000000
vn 0.891007 0.453990 0.000000
vn 0.891007 0.453990 0.000000
vn 0.891007 0.453990 0.000000
vn 0.987689 0.156430 0.000000
vn 0.987689 0.156430 0.000000
vn 0.987689 0.156430 0.000000
vn 0.987689 0.156430 0.000000
vn 0.987689 -0.156430 0.000000
vn 0.987689 -0.156430 0.000000
vn 0.987689 -0.156430 0.000000
vn 0.987689 -0.156430 0.000000
vn 0.891003 -0.453998 0.000000
vn 0.891003 -0.453998 0.000000
vn 0.891003 -0.453998 0.000000
vn 0.891003 -0.453998 0.000000
vn 0.707110 -0.707104 0.000000
vn 0.707110 -0.707104 0.000000
vn 0.707110 -0.707104 0.000000
vn 0.707110 -0.707104 0.000000
vn 0.453990 -0.891007 0.000000
vn 0.453990 -0.891007 0.000000
vn 0.453990 -0.891007 0.000000
vn 0.453990 -0.891007 0.000000
vn 0.156433 -0.987689 0.000000
vn 0.156433 -0.987689 0.000000
vn 0.156433 -0.987689 0.000000
vn 0.156433 -0.987689 0.000000
vn -0.156436 -0.987688 0.000000
vn -0.156436 -0.987688 0.000000
vn -0.156436 -0.987688 0.000000
vn -0.156436 -0.987688 0.000000
vn -0.453987 -0.891008 0.000000
vn -0.453987 -0.891008 0.000000
vn -0.453987 -0.891008 0.000000
vn -0.453987 -0.891008 0.000000
vn -0.707109 -0.707104 0.000000
vn -0.707109 -0.707104 0.000000
vn -0.707109 -0.707104 0.000000
vn -0.707109 -0.707104 0.000000
s 1
g pCylinder7
usemtl initialShadingGroup
f 1/18/1 2/19/2 19/37/3 18/36/4
f 2/19/2 3/20/5 20/38/6 19/37/3
f 3/20/5 4/21/7 21/39/8 20/38/6
f 4/21/7 5/22/9 22/40/10 21/39/8
f 6/23/11 7/24/12 24/42/13 23/41/14
f 7/24/12 8/25/15 25/43/16 24/42/13
f 8/25/15 9/26/17 26/44/18 25/43/16
f 9/26/17 10/27/19 27/45/20 26/44/18
f 10/27/19 11/28/21 28/46/22 27/45/20
f 11/28/21 12/29/23 29/47/24 28/46/22
f 12/29/23 13/30/25 30/48/26 29/47/24
f 13/30/25 14/31/27 31/49/28 30/48/26
f 14/31/27 15/32/29 32/50/30 31/49/28
f 15/32/29 16/33/31 33/51/32 32/50/30
f 16/33/31 17/34/33 34/52/34 33/51/32
f 17/34/33 1/35/1 18/53/4 34/52/34
s 3
f 2/2/35 1/1/36 35/72/37 36/71/38
f 3/3/39 2/2/35 36/71/38 37/73/40
f 4/4/41 3/3/39 37/73/40 38/74/42
f 5/5/43 4/4/41 38/74/42 39/75/44
f 5/5/43 39/75/44 40/76/45
f 5/5/43 40/76/45 41/77/46
f 5/5/43 41/77/46 42/78/47
f 6/6/48 5/5/43 42/78/47 43/79/49
f 7/7/50 6/6/48 43/79/49 44/80/51
f 8/8/52 7/7/50 44/80/51 45/81/53
f 9/9/54 8/8/52 45/81/53 46/82/55
f 10/10/56 9/9/54 46/82/55 47/83/57
f 11/11/58 10/10/56 47/83/57 48/84/59
f 12/12/60 11/11/58 48/84/59 49/85/61
f 13/13/62 12/12/60 49/85/61 50/86/63
f 14/14/64 13/13/62 50/86/63 51/87/65
f 15/15/66 14/14/64 51/87/65 52/88/67
f 16/16/68 15/15/66 52/88/67 53/89/69
f 17/17/70 16/16/68 53/89/69 54/90/71
f 1/1/36 17/17/70 54/90/71 35/72/37
s 4
f 18/69/72 19/68/73 56/92/74 55/91/75
f 19/68/73 20/67/76 57/93/77 56/92/74
f 20/67/76 21/66/78 58/94/79 57/93/77
f 21/66/78 22/65/80 59/95/81 58/94/79
f 22/65/80 60/96/82 59/95/81
f 22/65/80 61/97/83 60/96/82
f 22/65/80 62/98/84 61/97/83
f 22/65/80 23/64/85 63/99/86 62/98/84
f 23/64/85 24/63/87 64/100/88 63/99/86
f 24/63/87 25/62/89 65/101/90 64/100/88
f 25/62/89 26/61/91 66/102/92 65/101/90
f 26/61/91 27/60/93 67/103/94 66/102/92
f 27/60/93 28/59/95 68/104/96 67/103/94
f 28/59/95 29/58/97 69/105/98 68/104/96
f 29/58/97 30/57/99 70/106/100 69/105/98
f 30/57/99 31/56/101 71/107/102 70/106/100
f 31/56/101 32/55/103 72/108/104 71/107/102
f 32/55/103 33/54/105 73/109/106 72/108/104
f 33/54/105 34/70/107 74/110/108 73/109/106
f 34/70/107 18/69/72 55/91/75 74/110/108
s off
f 23/111/109 22/112/110 76/113/111 75/114/112
f 75/114/113 76/113/114 78/115/115 77/116/116
f 77/116/117 78/115/118 5/117/119 6/118/120
s 1
f 22/112/10 5/119/9 78/120/121 76/113/122
s off
f 6/121/123 23/111/124 75/114/125 77/122/126
f 36/71/127 35/72/128 55/91/129 56/92/130
f 35/72/131 54/90/132 74/110/133 55/91/134
f 54/90/135 53/89/136 73/109/137 74/110/138
f 53/89/139 52/88/140 72/108/141 73/109/142
f 52/88/143 51/87/144 71/107/145 72/108/146
f 51/87/147 50/86/148 70/106/149 71/107/150
f 50/86/151 49/85/152 69/105/153 70/106/154
f 49/85/155 48/84/156 68/104/157 69/105/158
f 48/84/159 47/83/160 67/103/161 68/104/162
f 47/83/163 46/82/164 66/102/165 67/103/166
f 46/82/167 45/81/168 65/101/169 66/102/170
f 45/81/171 44/80/172 64/100/173 65/101/174
f 44/80/175 43/79/176 63/99/177 64/100/178
f 43/79/179 42/78/180 62/98/181 63/99/182
f 42/78/183 41/77/184 61/97/185 62/98/186
f 41/77/187 40/76/188 60/96/189 61/97/190
f 40/76/191 39/75/192 59/95/193 60/96/194
f 39/75/195 38/74/196 58/94/197 59/95/198
f 38/74/199 37/73/200 57/93/201 58/94/202
f 37/73/203 36/71/204 56/92/205 57/93/206
